<?xml version="1.0" encoding="utf-8"?>
<!-- Generator: Adobe Illustrator 24.2.3, SVG Export Plug-In . SVG Version: 6.00 Build 0)  -->
<svg version="1.1" id="Layer_1" xmlns="http://www.w3.org/2000/svg" xmlns:xlink="http://www.w3.org/1999/xlink" x="0px" y="0px"
	 viewBox="0 0 186 62" style="enable-background:new 0 0 186 62;" xml:space="preserve">
<style type="text/css">
	.st0{fill:#45B249;}
	.st1{fill:#641934;}
	.st2{fill:#1C1D1D;}
</style>
<g id="Logo_x5F_Horizontal_1_">
	<g>
		<g>
			<path class="st0" d="M14.5,31.8c0-4.5,3.6-8.1,8.1-8.1s8.1,3.6,8.1,8.1c0,4.5-3.6,8.1-8.1,8.1S14.5,36.3,14.5,31.8"/>
			<path class="st1" d="M14.5,31.8c0-4.5,3.6-8.1,8.1-8.1c4.5,0,8.1,3.6,8.1,8.1c0,4.5-3.6,8.1-8.1,8.1C18.2,40,14.5,36.3,14.5,31.8
				"/>
			<path class="st1" d="M22.6,10.2C10.7,10.2,1,19.9,1,31.8c0,9,5.4,16.6,13.3,20c0.4,0.2,1,0.3,1.6,0.3c2.2,0,4.1-1.8,4.1-4.1
				c0-1.7-1-3.1-2.5-3.7l0,0c-4.9-2-8.3-6.9-8.3-12.5c0-7.5,6.1-13.5,13.5-13.5s13.5,6.1,13.5,13.5c0,5.6-3.4,10.4-8.3,12.5l0,0
				c-1.5,0.6-2.5,2.1-2.5,3.7c0,2.2,1.8,4.1,4.1,4.1c0.6,0,1.1-0.1,1.6-0.3c7.9-3.3,13.3-11,13.3-20C44.3,19.9,34.6,10.2,22.6,10.2"
				/>
			<path class="st2" d="M107.1,29.4c0-3.9-2.7-6.8-6.9-6.8c-4.2,0-6.9,2.9-6.9,6.8c0,3.9,2.7,6.8,6.9,6.8
				C104.4,36.3,107.1,33.4,107.1,29.4 M86.6,29.4c0-7.2,5.7-12.7,13.6-12.7c8,0,13.6,5.6,13.6,12.7c0,7.2-5.6,12.7-13.6,12.7
				C92.3,42.2,86.6,36.6,86.6,29.4"/>
			<path class="st2" d="M111.5,47.4h3.6c2,0,2.6-0.7,2.6-2.5V16.7h6.7V45c0,6-2.4,8.5-8.8,8.5h-4.2V47.4z"/>
			<path class="st2" d="M75.8,30.8c0,3-3,5.4-6.9,5.4c-4.4,0-7.1-2.6-7.1-6.8c0-3.9,2.9-6.6,7.3-6.6c3.5,0,6.6,2.5,6.6,5.3V30.8z
				 M76.1,16.7v2.8H76c-1.7-1.8-4.6-2.8-8.1-2.8c-7.4,0-12.8,5.5-12.8,12.6c0,7.4,5.6,12.8,13.1,12.8c3.3,0,6.1-1.1,7.8-2.9h0.1v2.5
				c0,3.3-2.8,5.7-6.6,5.7c-3.8,0-6-1.1-7.9-2.9l-4.4,4.2c2.9,3.1,7.4,4.9,12.4,4.9c7.7,0,13-5.2,13-12V16.7H76.1z"/>
			<path class="st2" d="M141.8,22.2c3.6,0,6.1,1.9,6.4,4.7h-12.9C135.6,24,138.1,22.2,141.8,22.2 M142.5,36.7c-4,0-7.2-2.6-7.3-5.1
				h19.6v-1.9c0-7.2-5-13-13.1-13c-7.6,0-13.1,5.4-13.1,12.8c0,7.6,5.8,12.7,14.2,12.7c5.2,0,8.9-2.5,10.9-4.9l-4.6-3.2
				C147,36,145.2,36.7,142.5,36.7"/>
			<polygon class="st2" points="158.7,10.1 165.2,10.1 165.2,26.8 165.3,26.8 176.2,16.6 184.9,16.6 173.6,27.3 184.9,42.2 
				177.1,42.2 169.4,31.4 169.3,31.4 165.2,35.3 165.2,42.2 158.7,42.2 			"/>
		</g>
	</g>
</g>
</svg>
